<?xml version="1.0" encoding="UTF-8" standalone="no"?><!DOCTYPE svg PUBLIC "-//W3C//DTD SVG 1.1//EN" "http://www.w3.org/Graphics/SVG/1.1/DTD/svg11.dtd"><svg width="100%" height="100%" viewBox="0 0 3508 4961" version="1.1" xmlns="http://www.w3.org/2000/svg" xmlns:xlink="http://www.w3.org/1999/xlink" xml:space="preserve" xmlns:serif="http://www.serif.com/" style="fill-rule:evenodd;clip-rule:evenodd;stroke-linecap:round;stroke-linejoin:round;stroke-miterlimit:1.5;"><path d="M1621,1127l0,1444l1318,1l0,-1445l-1318,0Z" style="fill:#fff;stroke:#000;stroke-width:3.33px;"/><path d="M1786,1410l0,202l208,1l-1,-205l-207,2Z" style="fill:#828282;stroke:#000;stroke-width:0.83px;"/><path d="M1796,1424l-1,177l185,-1l1,-178l-185,2Z" style="fill:#cfcfcf;stroke:#000;stroke-width:0.83px;"/><path d="M1815,1439l1,146l147,1l-2,-146l-146,-1Z" style="fill:#fff;stroke:#000;stroke-width:0.83px;"/><path d="M1840,1477l0,5l5,0l0,4l3,0l0,7l12,0l0,-5l4,0l0,-3l4,0l0,-12l-5,0l0,-3l-4,0l0,-5l-10,0l0,4l-5,0l0,4l-3,0l0,4l-1,0Z" style="fill:#6d6d6d;stroke:#000;stroke-width:0.83px;"/><path d="M1850,1472l0,3l-4,0l0,8l4,0l0,3l11,0l0,-14l-11,0Z" style="fill:#fdfdfd;stroke:#000;stroke-width:0.83px;"/><path d="M1895,1461l0,100l26,0l-1,-100l-25,0Z" style="fill:#050505;stroke:#000;stroke-width:0.83px;"/><path d="M1954,1472l0,29l27,0l-1,-30l-26,1Z" style="fill:#8f8f8f;stroke:#000;stroke-width:0.83px;"/><path d="M1954,1526l1,23l26,1l0,-25l-27,1Z" style="fill:#888;stroke:#000;stroke-width:0.83px;"/><path d="M1797,1471l23,0l0,30l-23,1l0,-31Z" style="fill:#858585;stroke:#000;stroke-width:0.83px;"/><path d="M1797,1528l0,26l27,-1l0,-26l-27,1Z" style="fill:#868585;stroke:#000;stroke-width:0.83px;"/><path d="M1690.062,1420l-1.062,54l34,0l0,-54l-32.938,0Z" style="fill:#bdbdbd;stroke:#000;stroke-width:0.83px;"/><path d="M1694,1420l0,53l26,0l-1,-54l-25,1Z" style="fill:#636363;stroke:#000;stroke-width:0.83px;"/><path d="M1695,1442l20,0l0,11l-21,0l1,-11Z" style="fill:#cecece;stroke:#000;stroke-width:0.83px;"/><path d="M1719.15,1427.088l-22.15,-0.088l0,3l16,0l0,4l-16,0l0,4l18,0l0,18l-18,1l0,4l19,-1l0,8l4,0" style="fill:#292929;stroke:#000;stroke-width:0.83px;"/><path d="M1690.062,1500l-1.062,54l34,0l0,-54l-32.938,0Z" style="fill:#bdbdbd;stroke:#000;stroke-width:0.83px;"/><path d="M1694,1500l0,53l26,0l-1,-54l-25,1Z" style="fill:#636363;stroke:#000;stroke-width:0.83px;"/><path d="M1695,1522l20,0l0,11l-21,0l1,-11Z" style="fill:#cecece;stroke:#000;stroke-width:0.83px;"/><path d="M1719.15,1507.088l-22.15,-0.088l0,3l16,0l0,4l-16,0l0,4l18,0l0,18l-18,1l0,4l19,-1l0,8l4,0" style="fill:#292929;stroke:#000;stroke-width:0.83px;"/><path d="M2103.062,1420l-1.062,54l34,0l0,-54l-32.938,0Z" style="fill:#bdbdbd;stroke:#000;stroke-width:0.83px;"/><path d="M2107,1420l0,53l26,0l-1,-54l-25,1Z" style="fill:#636363;stroke:#000;stroke-width:0.83px;"/><path d="M2108,1442l20,0l0,11l-21,0l1,-11Z" style="fill:#cecece;stroke:#000;stroke-width:0.83px;"/><path d="M2132.15,1427.088l-22.15,-0.088l0,3l16,0l0,4l-16,0l0,4l18,0l0,18l-18,1l0,4l19,-1l0,8l4,0" style="fill:#292929;stroke:#000;stroke-width:0.83px;"/><path d="M2103.062,1500l-1.062,54l34,0l0,-54l-32.938,0Z" style="fill:#bdbdbd;stroke:#000;stroke-width:0.83px;"/><path d="M2107,1500l0,53l26,0l-1,-54l-25,1Z" style="fill:#636363;stroke:#000;stroke-width:0.83px;"/><path d="M2108,1522l20,0l0,11l-21,0l1,-11Z" style="fill:#cecece;stroke:#000;stroke-width:0.83px;"/><path d="M2132.15,1507.088l-22.15,-0.088l0,3l16,0l0,4l-16,0l0,4l18,0l0,18l-18,1l0,4l19,-1l0,8l4,0" style="fill:#292929;stroke:#000;stroke-width:0.83px;"/><path d="M2513.062,1423l-1.062,54l34,0l0,-54l-32.938,0Z" style="fill:#bdbdbd;stroke:#000;stroke-width:0.83px;"/><path d="M2517,1423l0,53l26,0l-1,-54l-25,1Z" style="fill:#636363;stroke:#000;stroke-width:0.83px;"/><path d="M2518,1445l20,0l0,11l-21,0l1,-11Z" style="fill:#cecece;stroke:#000;stroke-width:0.83px;"/><path d="M2542.15,1430.088l-22.15,-0.088l0,3l16,0l0,4l-16,0l0,4l18,0l0,18l-18,1l0,4l19,-1l0,8l4,0" style="fill:#292929;stroke:#000;stroke-width:0.83px;"/><path d="M2514.062,1500l-1.062,54l34,0l0,-54l-32.938,0Z" style="fill:#bdbdbd;stroke:#000;stroke-width:0.83px;"/><path d="M2518,1500l0,53l26,0l-1,-54l-25,1Z" style="fill:#636363;stroke:#000;stroke-width:0.83px;"/><path d="M2519,1522l20,0l0,11l-21,0l1,-11Z" style="fill:#cecece;stroke:#000;stroke-width:0.83px;"/><path d="M2543.15,1507.088l-22.15,-0.088l0,3l16,0l0,4l-16,0l0,4l18,0l0,18l-18,1l0,4l19,-1l0,8l4,0" style="fill:#292929;stroke:#000;stroke-width:0.83px;"/><path d="M1690.062,1769l-1.062,54l34,0l0,-54l-32.938,0Z" style="fill:#bdbdbd;stroke:#000;stroke-width:0.83px;"/><path d="M1694,1769l0,53l26,0l-1,-54l-25,1Z" style="fill:#636363;stroke:#000;stroke-width:0.83px;"/><path d="M1695,1791l20,0l0,11l-21,0l1,-11Z" style="fill:#cecece;stroke:#000;stroke-width:0.83px;"/><path d="M1719.15,1776.088l-22.15,-0.088l0,3l16,0l0,4l-16,0l0,4l18,0l0,18l-18,1l0,4l19,-1l0,8l4,0" style="fill:#292929;stroke:#000;stroke-width:0.83px;"/><path d="M1690.062,1848l-1.062,54l34,0l0,-54l-32.938,0Z" style="fill:#bdbdbd;stroke:#000;stroke-width:0.83px;"/><path d="M1694,1848l0,53l26,0l-1,-54l-25,1Z" style="fill:#636363;stroke:#000;stroke-width:0.83px;"/><path d="M1695,1870l20,0l0,11l-21,0l1,-11Z" style="fill:#cecece;stroke:#000;stroke-width:0.83px;"/><path d="M1719.15,1855.088l-22.15,-0.088l0,3l16,0l0,4l-16,0l0,4l18,0l0,18l-18,1l0,4l19,-1l0,8l4,0" style="fill:#292929;stroke:#000;stroke-width:0.83px;"/><path d="M2102.062,1768l-1.062,54l34,0l0,-54l-32.938,0Z" style="fill:#bdbdbd;stroke:#000;stroke-width:0.83px;"/><path d="M2106,1768l0,53l26,0l-1,-54l-25,1Z" style="fill:#636363;stroke:#000;stroke-width:0.83px;"/><path d="M2107,1790l20,0l0,11l-21,0l1,-11Z" style="fill:#cecece;stroke:#000;stroke-width:0.83px;"/><path d="M2131.15,1775.088l-22.15,-0.088l0,3l16,0l0,4l-16,0l0,4l18,0l0,18l-18,1l0,4l19,-1l0,8l4,0" style="fill:#292929;stroke:#000;stroke-width:0.83px;"/><path d="M2102.062,1847l-1.062,54l34,0l0,-54l-32.938,0Z" style="fill:#bdbdbd;stroke:#000;stroke-width:0.83px;"/><path d="M2106,1847l0,53l26,0l-1,-54l-25,1Z" style="fill:#636363;stroke:#000;stroke-width:0.83px;"/><path d="M2107,1869l20,0l0,11l-21,0l1,-11Z" style="fill:#cecece;stroke:#000;stroke-width:0.83px;"/><path d="M2131.15,1854.088l-22.15,-0.088l0,3l16,0l0,4l-16,0l0,4l18,0l0,18l-18,1l0,4l19,-1l0,8l4,0" style="fill:#292929;stroke:#000;stroke-width:0.83px;"/><path d="M2513.062,1768l-1.062,54l34,0l0,-54l-32.938,0Z" style="fill:#bdbdbd;stroke:#000;stroke-width:0.83px;"/><path d="M2517,1768l0,53l26,0l-1,-54l-25,1Z" style="fill:#636363;stroke:#000;stroke-width:0.83px;"/><path d="M2518,1790l20,0l0,11l-21,0l1,-11Z" style="fill:#cecece;stroke:#000;stroke-width:0.83px;"/><path d="M2542.15,1775.088l-22.15,-0.088l0,3l16,0l0,4l-16,0l0,4l18,0l0,18l-18,1l0,4l19,-1l0,8l4,0" style="fill:#292929;stroke:#000;stroke-width:0.83px;"/><path d="M2512.062,1850l-1.062,54l34,0l0,-54l-32.938,0Z" style="fill:#bdbdbd;stroke:#000;stroke-width:0.83px;"/><path d="M2516,1850l0,53l26,0l-1,-54l-25,1Z" style="fill:#636363;stroke:#000;stroke-width:0.83px;"/><path d="M2517,1872l20,0l0,11l-21,0l1,-11Z" style="fill:#cecece;stroke:#000;stroke-width:0.83px;"/><path d="M2541.15,1857.088l-22.15,-0.088l0,3l16,0l0,4l-16,0l0,4l18,0l0,18l-18,1l0,4l19,-1l0,8l4,0" style="fill:#292929;stroke:#000;stroke-width:0.83px;"/><path d="M2101.062,2110l-1.062,54l34,0l0,-54l-32.938,0Z" style="fill:#bdbdbd;stroke:#000;stroke-width:0.83px;"/><path d="M2105,2110l0,53l26,0l-1,-54l-25,1Z" style="fill:#636363;stroke:#000;stroke-width:0.83px;"/><path d="M2106,2132l20,0l0,11l-21,0l1,-11Z" style="fill:#cecece;stroke:#000;stroke-width:0.83px;"/><path d="M2130.15,2117.088l-22.15,-0.088l0,3l16,0l0,4l-16,0l0,4l18,0l0,18l-18,1l0,4l19,-1l0,8l4,0" style="fill:#292929;stroke:#000;stroke-width:0.83px;"/><path d="M2102.062,2186l-1.062,54l34,0l0,-54l-32.938,0Z" style="fill:#bdbdbd;stroke:#000;stroke-width:0.83px;"/><path d="M2106,2186l0,53l26,0l-1,-54l-25,1Z" style="fill:#636363;stroke:#000;stroke-width:0.83px;"/><path d="M2107,2208l20,0l0,11l-21,0l1,-11Z" style="fill:#cecece;stroke:#000;stroke-width:0.83px;"/><path d="M2131.15,2193.088l-22.15,-0.088l0,3l16,0l0,4l-16,0l0,4l18,0l0,18l-18,1l0,4l19,-1l0,8l4,0" style="fill:#292929;stroke:#000;stroke-width:0.83px;"/><path d="M2513.062,2109l-1.062,54l34,0l0,-54l-32.938,0Z" style="fill:#bdbdbd;stroke:#000;stroke-width:0.83px;"/><path d="M2517,2109l0,53l26,0l-1,-54l-25,1Z" style="fill:#636363;stroke:#000;stroke-width:0.83px;"/><path d="M2518,2131l20,0l0,11l-21,0l1,-11Z" style="fill:#cecece;stroke:#000;stroke-width:0.83px;"/><path d="M2542.15,2116.088l-22.15,-0.088l0,3l16,0l0,4l-16,0l0,4l18,0l0,18l-18,1l0,4l19,-1l0,8l4,0" style="fill:#292929;stroke:#000;stroke-width:0.83px;"/><path d="M2514.062,2187l-1.062,54l34,0l0,-54l-32.938,0Z" style="fill:#bdbdbd;stroke:#000;stroke-width:0.83px;"/><path d="M2518,2187l0,53l26,0l-1,-54l-25,1Z" style="fill:#636363;stroke:#000;stroke-width:0.83px;"/><path d="M2519,2209l20,0l0,11l-21,0l1,-11Z" style="fill:#cecece;stroke:#000;stroke-width:0.83px;"/><path d="M2543.15,2194.088l-22.15,-0.088l0,3l16,0l0,4l-16,0l0,4l18,0l0,18l-18,1l0,4l19,-1l0,8l4,0" style="fill:#292929;stroke:#000;stroke-width:0.83px;"/><rect x="1734" y="2179" width="207" height="99" style="stroke:#000;stroke-width:0.83px;"/><path d="M1749,2190l-9,11l-1,56l11,9l170,-1l13,-11l-1,-53l-9,-11l-174,0Z" style="fill:#fff;stroke:#000;stroke-width:0.83px;"/><path d="M1758,2339l36,-1l-1,-63l-34,0l-1,64Z" style="fill:#8b8b8b;stroke:#000;stroke-width:0.83px;"/><path d="M1759,2316l34,-1l0,-40l-34,-1l0,42Z" style="fill:#7f7f7f;stroke:#000;stroke-width:0.83px;"/><path d="M1759,2273l0,24l34,1l-1,-23l-33,-2Z" style="fill:#424242;stroke:#000;stroke-width:0.83px;"/><path d="M1882,2340l36,-1l-1,-63l-34,0l-1,64Z" style="fill:#8b8b8b;stroke:#000;stroke-width:0.83px;"/><path d="M1883,2317l34,-1l0,-40l-34,-1l0,42Z" style="fill:#7f7f7f;stroke:#000;stroke-width:0.83px;"/><path d="M1883,2274l0,24l34,1l-1,-23l-33,-2Z" style="fill:#424242;stroke:#000;stroke-width:0.83px;"/><path d="M1816,2123l2,57l39,1l0,-58l-41,0Z" style="fill:#868686;stroke:#000;stroke-width:0.83px;"/><path d="M1817,2139l41,0l0,41l-39,1l-2,-42Z" style="fill:#4d4d4d;stroke:#000;stroke-width:0.83px;"/><rect x="2555" y="2382" width="110" height="52" style="fill:#bababa;stroke:#000;stroke-width:1px;"/><rect x="2568" y="2388" width="79" height="41" style="fill:#1a1a1a;stroke:#000;stroke-width:1px;"/><path d="M2591,2388l0,18l11,0l0,4l-11,0l0,14l33,0l0,-36l-33,0Z" style="fill:#fafafa;stroke:#000;stroke-width:1px;"/><path d="M2647,2382l0,52" style="fill:none;stroke:#000;stroke-width:1px;"/><path d="M2568.085,2382l-0.253,52" style="fill:none;stroke:#000;stroke-width:1px;"/><rect x="2553" y="2461" width="110" height="52" style="fill:#bababa;stroke:#000;stroke-width:1px;"/><rect x="2566" y="2467" width="79" height="41" style="fill:#1a1a1a;stroke:#000;stroke-width:1px;"/><path d="M2589,2467l0,18l11,0l0,4l-11,0l0,14l33,0l0,-36l-33,0Z" style="fill:#fafafa;stroke:#000;stroke-width:1px;"/><path d="M2645,2461l0,52" style="fill:none;stroke:#000;stroke-width:1px;"/><path d="M2566.085,2461l-0.253,52" style="fill:none;stroke:#000;stroke-width:1px;"/><path d="M2826,2398l-1,67l68,0l0,-67l-67,0Z" style="fill:#727272;stroke:#000;stroke-width:1px;"/><rect x="2833" y="2406" width="52" height="52" style="fill:#e9e9e9;stroke:#000;stroke-width:1px;"/><path d="M2848,2443l-4,0l0,-4l-4,0l0,-18l4,0l0,3l4,0l0,5l18,0l0,7l-18,0l0,7Z" style="fill:#a5a5a5;stroke:#000;stroke-width:1px;"/><path d="M2870,2457l0,-3l-11,0l0,-10l15,-1l0,-18l-4,0l0,-4l-11,0l0,-8l12,0l0,-4l-23,0l0,20l18,0l0,7l-18,0l0,11l6,0l0,7l-9,0l0,3l25,0Z" style="fill:#545454;stroke:#000;stroke-width:1px;"/><path d="M2411,1230l0,67l68,-1l-1,-66l-67,0Z" style="fill:#a8a8a8;stroke:#000;stroke-width:1px;"/><path d="M1942,1232c-6.199,-0.59 -13.167,2 -18,5c-4.823,2.994 -9,7.833 -11,13c-2,5.167 -2.117,12.095 -1,18c1.167,6.167 4.333,14.667 8,19c3.37,3.983 8.89,5.948 14,7c5.667,1.167 14.167,2 20,0c5.833,-2 11.372,-6.724 15,-12c3.667,-5.333 7.5,-13.167 7,-20c-0.5,-6.833 -4.333,-16 -10,-21c-5.667,-5 -17,-8.333 -24,-9Z" style="fill:#a8a8a8;stroke:#000;stroke-width:1px;"/><path d="M1944,1247c-4.167,-0.5 -9.833,-1 -13,1c-3.167,2 -5.34,6.876 -6,11c-0.667,4.167 -0.5,10.667 2,14c2.5,3.333 8.253,5.509 13,6c4.833,0.5 12.5,-0.167 16,-3c3.5,-2.833 5,-9.833 5,-14c0,-4.028 -2.167,-8.5 -5,-11c-2.833,-2.5 -7.833,-3.5 -12,-4Z" style="fill:#fcfcfc;stroke:#000;stroke-width:1px;"/><path d="M1774,2398c-6.199,-0.59 -13.167,2 -18,5c-4.823,2.994 -9,7.833 -11,13c-2,5.167 -2.117,12.095 -1,18c1.167,6.167 4.333,14.667 8,19c3.37,3.983 8.89,5.948 14,7c5.667,1.167 14.167,2 20,0c5.833,-2 11.372,-6.724 15,-12c3.667,-5.333 7.5,-13.167 7,-20c-0.5,-6.833 -4.333,-16 -10,-21c-5.667,-5 -17,-8.333 -24,-9Z" style="fill:#a8a8a8;stroke:#000;stroke-width:1px;"/><path d="M1776,2413c-4.167,-0.5 -9.833,-1 -13,1c-3.167,2 -5.34,6.876 -6,11c-0.667,4.167 -0.5,10.667 2,14c2.5,3.333 8.253,5.509 13,6c4.833,0.5 12.5,-0.167 16,-3c3.5,-2.833 5,-9.833 5,-14c0,-4.028 -2.167,-8.5 -5,-11c-2.833,-2.5 -7.833,-3.5 -12,-4Z" style="fill:#fcfcfc;stroke:#000;stroke-width:1px;"/><path d="M1858,2399c-6.199,-0.59 -13.167,2 -18,5c-4.823,2.994 -9,7.833 -11,13c-2,5.167 -2.117,12.095 -1,18c1.167,6.167 4.333,14.667 8,19c3.37,3.983 8.89,5.948 14,7c5.667,1.167 14.167,2 20,0c5.833,-2 11.372,-6.724 15,-12c3.667,-5.333 7.5,-13.167 7,-20c-0.5,-6.833 -4.333,-16 -10,-21c-5.667,-5 -17,-8.333 -24,-9Z" style="fill:#a8a8a8;stroke:#000;stroke-width:1px;"/><path d="M1860,2414c-4.167,-0.5 -9.833,-1 -13,1c-3.167,2 -5.34,6.876 -6,11c-0.667,4.167 -0.5,10.667 2,14c2.5,3.333 8.253,5.509 13,6c4.833,0.5 12.5,-0.167 16,-3c3.5,-2.833 5,-9.833 5,-14c0,-4.028 -2.167,-8.5 -5,-11c-2.833,-2.5 -7.833,-3.5 -12,-4Z" style="fill:#fcfcfc;stroke:#000;stroke-width:1px;"/><path d="M1942,2399c-6.199,-0.59 -13.167,2 -18,5c-4.823,2.994 -9,7.833 -11,13c-2,5.167 -2.117,12.095 -1,18c1.167,6.167 4.333,14.667 8,19c3.37,3.983 8.89,5.948 14,7c5.667,1.167 14.167,2 20,0c5.833,-2 11.372,-6.724 15,-12c3.667,-5.333 7.5,-13.167 7,-20c-0.5,-6.833 -4.333,-16 -10,-21c-5.667,-5 -17,-8.333 -24,-9Z" style="fill:#a8a8a8;stroke:#000;stroke-width:1px;"/><path d="M1944,2414c-4.167,-0.5 -9.833,-1 -13,1c-3.167,2 -5.34,6.876 -6,11c-0.667,4.167 -0.5,10.667 2,14c2.5,3.333 8.253,5.509 13,6c4.833,0.5 12.5,-0.167 16,-3c3.5,-2.833 5,-9.833 5,-14c0,-4.028 -2.167,-8.5 -5,-11c-2.833,-2.5 -7.833,-3.5 -12,-4Z" style="fill:#fcfcfc;stroke:#000;stroke-width:1px;"/><path d="M2024,2398c-6.199,-0.59 -13.167,2 -18,5c-4.823,2.994 -9,7.833 -11,13c-2,5.167 -2.117,12.095 -1,18c1.167,6.167 4.333,14.667 8,19c3.37,3.983 8.89,5.948 14,7c5.667,1.167 14.167,2 20,0c5.833,-2 11.372,-6.724 15,-12c3.667,-5.333 7.5,-13.167 7,-20c-0.5,-6.833 -4.333,-16 -10,-21c-5.667,-5 -17,-8.333 -24,-9Z" style="fill:#a8a8a8;stroke:#000;stroke-width:1px;"/><path d="M2026,2413c-4.167,-0.5 -9.833,-1 -13,1c-3.167,2 -5.34,6.876 -6,11c-0.667,4.167 -0.5,10.667 2,14c2.5,3.333 8.253,5.509 13,6c4.833,0.5 12.5,-0.167 16,-3c3.5,-2.833 5,-9.833 5,-14c0,-4.028 -2.167,-8.5 -5,-11c-2.833,-2.5 -7.833,-3.5 -12,-4Z" style="fill:#fcfcfc;stroke:#000;stroke-width:1px;"/><path d="M2107,2400c-6.199,-0.59 -13.167,2 -18,5c-4.823,2.994 -9,7.833 -11,13c-2,5.167 -2.117,12.095 -1,18c1.167,6.167 4.333,14.667 8,19c3.37,3.983 8.89,5.948 14,7c5.667,1.167 14.167,2 20,0c5.833,-2 11.372,-6.724 15,-12c3.667,-5.333 7.5,-13.167 7,-20c-0.5,-6.833 -4.333,-16 -10,-21c-5.667,-5 -17,-8.333 -24,-9Z" style="fill:#a8a8a8;stroke:#000;stroke-width:1px;"/><path d="M2109,2415c-4.167,-0.5 -9.833,-1 -13,1c-3.167,2 -5.34,6.876 -6,11c-0.667,4.167 -0.5,10.667 2,14c2.5,3.333 8.253,5.509 13,6c4.833,0.5 12.5,-0.167 16,-3c3.5,-2.833 5,-9.833 5,-14c0,-4.028 -2.167,-8.5 -5,-11c-2.833,-2.5 -7.833,-3.5 -12,-4Z" style="fill:#fcfcfc;stroke:#000;stroke-width:1px;"/><path d="M2192,2399c-6.199,-0.59 -13.167,2 -18,5c-4.823,2.994 -9,7.833 -11,13c-2,5.167 -2.117,12.095 -1,18c1.167,6.167 4.333,14.667 8,19c3.37,3.983 8.89,5.948 14,7c5.667,1.167 14.167,2 20,0c5.833,-2 11.372,-6.724 15,-12c3.667,-5.333 7.5,-13.167 7,-20c-0.5,-6.833 -4.333,-16 -10,-21c-5.667,-5 -17,-8.333 -24,-9Z" style="fill:#a8a8a8;stroke:#000;stroke-width:1px;"/><path d="M2194,2414c-4.167,-0.5 -9.833,-1 -13,1c-3.167,2 -5.34,6.876 -6,11c-0.667,4.167 -0.5,10.667 2,14c2.5,3.333 8.253,5.509 13,6c4.833,0.5 12.5,-0.167 16,-3c3.5,-2.833 5,-9.833 5,-14c0,-4.028 -2.167,-8.5 -5,-11c-2.833,-2.5 -7.833,-3.5 -12,-4Z" style="fill:#fcfcfc;stroke:#000;stroke-width:1px;"/><path d="M2275,2399c-6.199,-0.59 -13.167,2 -18,5c-4.823,2.994 -9,7.833 -11,13c-2,5.167 -2.117,12.095 -1,18c1.167,6.167 4.333,14.667 8,19c3.37,3.983 8.89,5.948 14,7c5.667,1.167 14.167,2 20,0c5.833,-2 11.372,-6.724 15,-12c3.667,-5.333 7.5,-13.167 7,-20c-0.5,-6.833 -4.333,-16 -10,-21c-5.667,-5 -17,-8.333 -24,-9Z" style="fill:#a8a8a8;stroke:#000;stroke-width:1px;"/><path d="M2277,2414c-4.167,-0.5 -9.833,-1 -13,1c-3.167,2 -5.34,6.876 -6,11c-0.667,4.167 -0.5,10.667 2,14c2.5,3.333 8.253,5.509 13,6c4.833,0.5 12.5,-0.167 16,-3c3.5,-2.833 5,-9.833 5,-14c0,-4.028 -2.167,-8.5 -5,-11c-2.833,-2.5 -7.833,-3.5 -12,-4Z" style="fill:#fcfcfc;stroke:#000;stroke-width:1px;"/><path d="M2358,2399c-6.199,-0.59 -13.167,2 -18,5c-4.823,2.994 -9,7.833 -11,13c-2,5.167 -2.117,12.095 -1,18c1.167,6.167 4.333,14.667 8,19c3.37,3.983 8.89,5.948 14,7c5.667,1.167 14.167,2 20,0c5.833,-2 11.372,-6.724 15,-12c3.667,-5.333 7.5,-13.167 7,-20c-0.5,-6.833 -4.333,-16 -10,-21c-5.667,-5 -17,-8.333 -24,-9Z" style="fill:#a8a8a8;stroke:#000;stroke-width:1px;"/><path d="M2360,2414c-4.167,-0.5 -9.833,-1 -13,1c-3.167,2 -5.34,6.876 -6,11c-0.667,4.167 -0.5,10.667 2,14c2.5,3.333 8.253,5.509 13,6c4.833,0.5 12.5,-0.167 16,-3c3.5,-2.833 5,-9.833 5,-14c0,-4.028 -2.167,-8.5 -5,-11c-2.833,-2.5 -7.833,-3.5 -12,-4Z" style="fill:#fcfcfc;stroke:#000;stroke-width:1px;"/><path d="M2025,1231c-6.199,-0.59 -13.167,2 -18,5c-4.823,2.994 -9,7.833 -11,13c-2,5.167 -2.117,12.095 -1,18c1.167,6.167 4.333,14.667 8,19c3.37,3.983 8.89,5.948 14,7c5.667,1.167 14.167,2 20,0c5.833,-2 11.372,-6.724 15,-12c3.667,-5.333 7.5,-13.167 7,-20c-0.5,-6.833 -4.333,-16 -10,-21c-5.667,-5 -17,-8.333 -24,-9Z" style="fill:#a8a8a8;stroke:#000;stroke-width:1px;"/><path d="M2027,1246c-4.167,-0.5 -9.833,-1 -13,1c-3.167,2 -5.34,6.876 -6,11c-0.667,4.167 -0.5,10.667 2,14c2.5,3.333 8.253,5.509 13,6c4.833,0.5 12.5,-0.167 16,-3c3.5,-2.833 5,-9.833 5,-14c0,-4.028 -2.167,-8.5 -5,-11c-2.833,-2.5 -7.833,-3.5 -12,-4Z" style="fill:#fcfcfc;stroke:#000;stroke-width:1px;"/><path d="M2109,1230c-6.199,-0.59 -13.167,2 -18,5c-4.823,2.994 -9,7.833 -11,13c-2,5.167 -2.117,12.095 -1,18c1.167,6.167 4.333,14.667 8,19c3.37,3.983 8.89,5.948 14,7c5.667,1.167 14.167,2 20,0c5.833,-2 11.372,-6.724 15,-12c3.667,-5.333 7.5,-13.167 7,-20c-0.5,-6.833 -4.333,-16 -10,-21c-5.667,-5 -17,-8.333 -24,-9Z" style="fill:#a8a8a8;stroke:#000;stroke-width:1px;"/><path d="M2111,1245c-4.167,-0.5 -9.833,-1 -13,1c-3.167,2 -5.34,6.876 -6,11c-0.667,4.167 -0.5,10.667 2,14c2.5,3.333 8.253,5.509 13,6c4.833,0.5 12.5,-0.167 16,-3c3.5,-2.833 5,-9.833 5,-14c0,-4.028 -2.167,-8.5 -5,-11c-2.833,-2.5 -7.833,-3.5 -12,-4Z" style="fill:#fcfcfc;stroke:#000;stroke-width:1px;"/><path d="M2193,1230c-6.199,-0.59 -13.167,2 -18,5c-4.823,2.994 -9,7.833 -11,13c-2,5.167 -2.117,12.095 -1,18c1.167,6.167 4.333,14.667 8,19c3.37,3.983 8.89,5.948 14,7c5.667,1.167 14.167,2 20,0c5.833,-2 11.372,-6.724 15,-12c3.667,-5.333 7.5,-13.167 7,-20c-0.5,-6.833 -4.333,-16 -10,-21c-5.667,-5 -17,-8.333 -24,-9Z" style="fill:#a8a8a8;stroke:#000;stroke-width:1px;"/><path d="M2195,1245c-4.167,-0.5 -9.833,-1 -13,1c-3.167,2 -5.34,6.876 -6,11c-0.667,4.167 -0.5,10.667 2,14c2.5,3.333 8.253,5.509 13,6c4.833,0.5 12.5,-0.167 16,-3c3.5,-2.833 5,-9.833 5,-14c0,-4.028 -2.167,-8.5 -5,-11c-2.833,-2.5 -7.833,-3.5 -12,-4Z" style="fill:#fcfcfc;stroke:#000;stroke-width:1px;"/><path d="M2276,1230c-6.199,-0.59 -13.167,2 -18,5c-4.823,2.994 -9,7.833 -11,13c-2,5.167 -2.117,12.095 -1,18c1.167,6.167 4.333,14.667 8,19c3.37,3.983 8.89,5.948 14,7c5.667,1.167 14.167,2 20,0c5.833,-2 11.372,-6.724 15,-12c3.667,-5.333 7.5,-13.167 7,-20c-0.5,-6.833 -4.333,-16 -10,-21c-5.667,-5 -17,-8.333 -24,-9Z" style="fill:#a8a8a8;stroke:#000;stroke-width:1px;"/><path d="M2278,1245c-4.167,-0.5 -9.833,-1 -13,1c-3.167,2 -5.34,6.876 -6,11c-0.667,4.167 -0.5,10.667 2,14c2.5,3.333 8.253,5.509 13,6c4.833,0.5 12.5,-0.167 16,-3c3.5,-2.833 5,-9.833 5,-14c0,-4.028 -2.167,-8.5 -5,-11c-2.833,-2.5 -7.833,-3.5 -12,-4Z" style="fill:#fcfcfc;stroke:#000;stroke-width:1px;"/><path d="M2359,1231c-6.199,-0.59 -13.167,2 -18,5c-4.823,2.994 -9,7.833 -11,13c-2,5.167 -2.117,12.095 -1,18c1.167,6.167 4.333,14.667 8,19c3.37,3.983 8.89,5.948 14,7c5.667,1.167 14.167,2 20,0c5.833,-2 11.372,-6.724 15,-12c3.667,-5.333 7.5,-13.167 7,-20c-0.5,-6.833 -4.333,-16 -10,-21c-5.667,-5 -17,-8.333 -24,-9Z" style="fill:#a8a8a8;stroke:#000;stroke-width:1px;"/><path d="M2361,1246c-4.167,-0.5 -9.833,-1 -13,1c-3.167,2 -5.34,6.876 -6,11c-0.667,4.167 -0.5,10.667 2,14c2.5,3.333 8.253,5.509 13,6c4.833,0.5 12.5,-0.167 16,-3c3.5,-2.833 5,-9.833 5,-14c0,-4.028 -2.167,-8.5 -5,-11c-2.833,-2.5 -7.833,-3.5 -12,-4Z" style="fill:#fcfcfc;stroke:#000;stroke-width:1px;"/><path d="M2446,1246c-4.167,-0.5 -9.833,-1 -13,1c-3.167,2 -5.34,6.876 -6,11c-0.667,4.167 -0.5,10.667 2,14c2.5,3.333 8.253,5.509 13,6c4.833,0.5 12.5,-0.167 16,-3c3.5,-2.833 5,-9.833 5,-14c0,-4.028 -2.167,-8.5 -5,-11c-2.833,-2.5 -7.833,-3.5 -12,-4Z" style="fill:#fffefe;stroke:#000;stroke-width:1px;"/><path d="M2410,2396l0,67l68,-1l-1,-66l-67,0Z" style="fill:#a8a8a8;stroke:#000;stroke-width:1px;"/><path d="M2445,2412c-4.167,-0.5 -9.833,-1 -13,1c-3.167,2 -5.34,6.876 -6,11c-0.667,4.167 -0.5,10.667 2,14c2.5,3.333 8.253,5.509 13,6c4.833,0.5 12.5,-0.167 16,-3c3.5,-2.833 5,-9.833 5,-14c0,-4.028 -2.167,-8.5 -5,-11c-2.833,-2.5 -7.833,-3.5 -12,-4Z" style="fill:#fffefe;stroke:#000;stroke-width:1px;"/><path d="M1658,1216l64,0l0,63l-64,1l0,-64Z" style="fill:#fff;stroke:#000;stroke-width:1px;"/><path d="M1686.129,1279.56l-0.129,-19.56l11,0l-1,-6l7,0l-1,-12l-6,0l0,-6l-15,0l0,5l-6,0l0,14l6,0l0,24l5.129,0.56Z" style="fill:#656565;stroke:#000;stroke-width:1px;"/><path d="M1681,1215l0,21l16,0l-1,-5l-5,-2l0,-14l-10,0Z" style="fill:#8d8d8d;stroke:#000;stroke-width:1px;"/><path d="M2859,1219.981l-63.78,0l0,61.817l63.78,0.981l0,-62.798Z" style="fill:#fffafa;stroke:#000;stroke-width:1px;"/><path d="M2830.968,1282.348l0.129,-19.193l-10.962,0l0.997,-5.887l-6.976,0l0.997,-11.775l5.979,0l0,-5.887l14.948,0l0,4.906l5.979,0l0,13.737l-5.979,0l0,23.549l-5.112,0.55Z" style="fill:#5d5d5d;stroke:#000;stroke-width:1px;"/><path d="M2836.079,1219l0,20.606l-15.945,0l0.997,-4.906l4.983,-1.962l0,-13.737l9.966,0Z" style="fill:#adadad;stroke:#000;stroke-width:1px;"/><g transform="matrix(50,0,0,50,1881.485505,2244.207527)"></g><text x="1791.471px" y="2244.208px" style="font-family:'CourierNewPS-BoldMT', 'Courier New', monospace;font-weight:700;font-size:50px;">U10</text><path d="M1795.865,1447.96l28.135,1.04l0,-25l-29,0l0.865,23.96Z" style="fill:#0a0a0a;stroke:#000;stroke-width:0.83px;"/><path d="M1794.865,1600.96l28.135,1.04l0,-25l-29,0l0.865,23.96Z" style="fill:#151515;stroke:#000;stroke-width:0.83px;"/><path d="M1952.865,1445.96l28.135,1.04l0,-25l-29,0l0.865,23.96Z" style="fill:#141414;stroke:#000;stroke-width:0.83px;"/><path d="M1951.865,1599.96l28.135,1.04l0,-25l-29,0l0.865,23.96Z" style="fill:#161616;stroke:#000;stroke-width:0.83px;"/><g transform="matrix(0,-1,1,0,-3133.784731,3639.925629)"><g transform="matrix(50,0,0,50,2173.598676,5038.622989)"></g><text x="2083.584px" y="5038.623px" style="font-family:'CourierNewPS-BoldMT', 'Courier New', monospace;font-weight:700;font-size:50px;">113</text></g><path d="M2196,1412l0,202l208,1l-1,-205l-207,2Z" style="fill:#828282;stroke:#000;stroke-width:0.83px;"/><path d="M2206,1426l-1,177l185,-1l1,-178l-185,2Z" style="fill:#cfcfcf;stroke:#000;stroke-width:0.83px;"/><path d="M2225,1441l1,146l147,1l-2,-146l-146,-1Z" style="fill:#fff;stroke:#000;stroke-width:0.83px;"/><path d="M2250,1479l0,5l5,0l0,4l3,0l0,7l12,0l0,-5l4,0l0,-3l4,0l0,-12l-5,0l0,-3l-4,0l0,-5l-10,0l0,4l-5,0l0,4l-3,0l0,4l-1,0Z" style="fill:#6d6d6d;stroke:#000;stroke-width:0.83px;"/><path d="M2260,1474l0,3l-4,0l0,8l4,0l0,3l11,0l0,-14l-11,0Z" style="fill:#fdfdfd;stroke:#000;stroke-width:0.83px;"/><path d="M2305,1463l0,100l26,0l-1,-100l-25,0Z" style="fill:#050505;stroke:#000;stroke-width:0.83px;"/><path d="M2364,1474l0,29l27,0l-1,-30l-26,1Z" style="fill:#8f8f8f;stroke:#000;stroke-width:0.83px;"/><path d="M2364,1528l1,23l26,1l0,-25l-27,1Z" style="fill:#888;stroke:#000;stroke-width:0.83px;"/><path d="M2207,1473l23,0l0,30l-23,1l0,-31Z" style="fill:#858585;stroke:#000;stroke-width:0.83px;"/><path d="M2207,1530l0,26l27,-1l0,-26l-27,1Z" style="fill:#868585;stroke:#000;stroke-width:0.83px;"/><path d="M2205.865,1449.96l28.135,1.04l0,-25l-29,0l0.865,23.96Z" style="fill:#0a0a0a;stroke:#000;stroke-width:0.83px;"/><path d="M2204.865,1602.96l28.135,1.04l0,-25l-29,0l0.865,23.96Z" style="fill:#151515;stroke:#000;stroke-width:0.83px;"/><path d="M2362.865,1447.96l28.135,1.04l0,-25l-29,0l0.865,23.96Z" style="fill:#141414;stroke:#000;stroke-width:0.83px;"/><path d="M2361.865,1601.96l28.135,1.04l0,-25l-29,0l0.865,23.96Z" style="fill:#161616;stroke:#000;stroke-width:0.83px;"/><g transform="matrix(0,-1,1,0,-2725.784731,4051.925629)"><g transform="matrix(50,0,0,50,2583.598676,5040.622989)"></g><text x="2493.584px" y="5040.623px" style="font-family:'CourierNewPS-BoldMT', 'Courier New', monospace;font-weight:700;font-size:50px;">112</text></g><path d="M2604,1414l0,202l208,1l-1,-205l-207,2Z" style="fill:#828282;stroke:#000;stroke-width:0.83px;"/><path d="M2614,1428l-1,177l185,-1l1,-178l-185,2Z" style="fill:#cfcfcf;stroke:#000;stroke-width:0.83px;"/><path d="M2633,1443l1,146l147,1l-2,-146l-146,-1Z" style="fill:#fff;stroke:#000;stroke-width:0.83px;"/><path d="M2658,1481l0,5l5,0l0,4l3,0l0,7l12,0l0,-5l4,0l0,-3l4,0l0,-12l-5,0l0,-3l-4,0l0,-5l-10,0l0,4l-5,0l0,4l-3,0l0,4l-1,0Z" style="fill:#6d6d6d;stroke:#000;stroke-width:0.83px;"/><path d="M2668,1476l0,3l-4,0l0,8l4,0l0,3l11,0l0,-14l-11,0Z" style="fill:#fdfdfd;stroke:#000;stroke-width:0.83px;"/><path d="M2713,1465l0,100l26,0l-1,-100l-25,0Z" style="fill:#050505;stroke:#000;stroke-width:0.83px;"/><path d="M2772,1476l0,29l27,0l-1,-30l-26,1Z" style="fill:#8f8f8f;stroke:#000;stroke-width:0.83px;"/><path d="M2772,1530l1,23l26,1l0,-25l-27,1Z" style="fill:#888;stroke:#000;stroke-width:0.83px;"/><path d="M2615,1475l23,0l0,30l-23,1l0,-31Z" style="fill:#858585;stroke:#000;stroke-width:0.83px;"/><path d="M2615,1532l0,26l27,-1l0,-26l-27,1Z" style="fill:#868585;stroke:#000;stroke-width:0.83px;"/><path d="M2613.865,1451.96l28.135,1.04l0,-25l-29,0l0.865,23.96Z" style="fill:#0a0a0a;stroke:#000;stroke-width:0.83px;"/><path d="M2612.865,1604.96l28.135,1.04l0,-25l-29,0l0.865,23.96Z" style="fill:#151515;stroke:#000;stroke-width:0.83px;"/><path d="M2770.865,1449.96l28.135,1.04l0,-25l-29,0l0.865,23.96Z" style="fill:#141414;stroke:#000;stroke-width:0.83px;"/><path d="M2769.865,1603.96l28.135,1.04l0,-25l-29,0l0.865,23.96Z" style="fill:#161616;stroke:#000;stroke-width:0.83px;"/><g transform="matrix(0,-1,1,0,-2319.784731,4461.925629)"><g transform="matrix(50,0,0,50,2991.598676,5042.622989)"></g><text x="2901.584px" y="5042.623px" style="font-family:'CourierNewPS-BoldMT', 'Courier New', monospace;font-weight:700;font-size:50px;">111</text></g><path d="M1786,1759l0,202l208,1l-1,-205l-207,2Z" style="fill:#828282;stroke:#000;stroke-width:0.83px;"/><path d="M1796,1773l-1,177l185,-1l1,-178l-185,2Z" style="fill:#cfcfcf;stroke:#000;stroke-width:0.83px;"/><path d="M1815,1788l1,146l147,1l-2,-146l-146,-1Z" style="fill:#fff;stroke:#000;stroke-width:0.83px;"/><path d="M1840,1826l0,5l5,0l0,4l3,0l0,7l12,0l0,-5l4,0l0,-3l4,0l0,-12l-5,0l0,-3l-4,0l0,-5l-10,0l0,4l-5,0l0,4l-3,0l0,4l-1,0Z" style="fill:#6d6d6d;stroke:#000;stroke-width:0.83px;"/><path d="M1850,1821l0,3l-4,0l0,8l4,0l0,3l11,0l0,-14l-11,0Z" style="fill:#fdfdfd;stroke:#000;stroke-width:0.83px;"/><path d="M1895,1810l0,100l26,0l-1,-100l-25,0Z" style="fill:#050505;stroke:#000;stroke-width:0.83px;"/><path d="M1954,1821l0,29l27,0l-1,-30l-26,1Z" style="fill:#8f8f8f;stroke:#000;stroke-width:0.83px;"/><path d="M1954,1875l1,23l26,1l0,-25l-27,1Z" style="fill:#888;stroke:#000;stroke-width:0.83px;"/><path d="M1797,1820l23,0l0,30l-23,1l0,-31Z" style="fill:#858585;stroke:#000;stroke-width:0.83px;"/><path d="M1797,1877l0,26l27,-1l0,-26l-27,1Z" style="fill:#868585;stroke:#000;stroke-width:0.83px;"/><path d="M1795.865,1796.96l28.135,1.04l0,-25l-29,0l0.865,23.96Z" style="fill:#0a0a0a;stroke:#000;stroke-width:0.83px;"/><path d="M1794.865,1949.96l28.135,1.04l0,-25l-29,0l0.865,23.96Z" style="fill:#151515;stroke:#000;stroke-width:0.83px;"/><path d="M1952.865,1794.96l28.135,1.04l0,-25l-29,0l0.865,23.96Z" style="fill:#141414;stroke:#000;stroke-width:0.83px;"/><path d="M1951.865,1948.96l28.135,1.04l0,-25l-29,0l0.865,23.96Z" style="fill:#161616;stroke:#000;stroke-width:0.83px;"/><g transform="matrix(0,-1,1,0,-3482.784731,3988.925629)"><g transform="matrix(50,0,0,50,2173.598676,5387.622989)"></g><text x="2083.584px" y="5387.623px" style="font-family:'CourierNewPS-BoldMT', 'Courier New', monospace;font-weight:700;font-size:50px;">116</text></g><path d="M2192,1759l0,202l208,1l-1,-205l-207,2Z" style="fill:#828282;stroke:#000;stroke-width:0.83px;"/><path d="M2202,1773l-1,177l185,-1l1,-178l-185,2Z" style="fill:#cfcfcf;stroke:#000;stroke-width:0.83px;"/><path d="M2221,1788l1,146l147,1l-2,-146l-146,-1Z" style="fill:#fff;stroke:#000;stroke-width:0.83px;"/><path d="M2246,1826l0,5l5,0l0,4l3,0l0,7l12,0l0,-5l4,0l0,-3l4,0l0,-12l-5,0l0,-3l-4,0l0,-5l-10,0l0,4l-5,0l0,4l-3,0l0,4l-1,0Z" style="fill:#6d6d6d;stroke:#000;stroke-width:0.83px;"/><path d="M2256,1821l0,3l-4,0l0,8l4,0l0,3l11,0l0,-14l-11,0Z" style="fill:#fdfdfd;stroke:#000;stroke-width:0.83px;"/><path d="M2301,1810l0,100l26,0l-1,-100l-25,0Z" style="fill:#050505;stroke:#000;stroke-width:0.83px;"/><path d="M2360,1821l0,29l27,0l-1,-30l-26,1Z" style="fill:#8f8f8f;stroke:#000;stroke-width:0.83px;"/><path d="M2360,1875l1,23l26,1l0,-25l-27,1Z" style="fill:#888;stroke:#000;stroke-width:0.83px;"/><path d="M2203,1820l23,0l0,30l-23,1l0,-31Z" style="fill:#858585;stroke:#000;stroke-width:0.83px;"/><path d="M2203,1877l0,26l27,-1l0,-26l-27,1Z" style="fill:#868585;stroke:#000;stroke-width:0.83px;"/><path d="M2201.865,1796.96l28.135,1.04l0,-25l-29,0l0.865,23.96Z" style="fill:#0a0a0a;stroke:#000;stroke-width:0.83px;"/><path d="M2200.865,1949.96l28.135,1.04l0,-25l-29,0l0.865,23.96Z" style="fill:#151515;stroke:#000;stroke-width:0.83px;"/><path d="M2358.865,1794.96l28.135,1.04l0,-25l-29,0l0.865,23.96Z" style="fill:#141414;stroke:#000;stroke-width:0.83px;"/><path d="M2357.865,1948.96l28.135,1.04l0,-25l-29,0l0.865,23.96Z" style="fill:#161616;stroke:#000;stroke-width:0.83px;"/><g transform="matrix(0,-1,1,0,-3076.784731,4394.925629)"><g transform="matrix(50,0,0,50,2579.598676,5387.622989)"></g><text x="2489.584px" y="5387.623px" style="font-family:'CourierNewPS-BoldMT', 'Courier New', monospace;font-weight:700;font-size:50px;">115</text></g><path d="M2604,1761l0,202l208,1l-1,-205l-207,2Z" style="fill:#828282;stroke:#000;stroke-width:0.83px;"/><path d="M2614,1775l-1,177l185,-1l1,-178l-185,2Z" style="fill:#cfcfcf;stroke:#000;stroke-width:0.83px;"/><path d="M2633,1790l1,146l147,1l-2,-146l-146,-1Z" style="fill:#fff;stroke:#000;stroke-width:0.83px;"/><path d="M2658,1828l0,5l5,0l0,4l3,0l0,7l12,0l0,-5l4,0l0,-3l4,0l0,-12l-5,0l0,-3l-4,0l0,-5l-10,0l0,4l-5,0l0,4l-3,0l0,4l-1,0Z" style="fill:#6d6d6d;stroke:#000;stroke-width:0.83px;"/><path d="M2668,1823l0,3l-4,0l0,8l4,0l0,3l11,0l0,-14l-11,0Z" style="fill:#fdfdfd;stroke:#000;stroke-width:0.83px;"/><path d="M2713,1812l0,100l26,0l-1,-100l-25,0Z" style="fill:#050505;stroke:#000;stroke-width:0.83px;"/><path d="M2772,1823l0,29l27,0l-1,-30l-26,1Z" style="fill:#8f8f8f;stroke:#000;stroke-width:0.83px;"/><path d="M2772,1877l1,23l26,1l0,-25l-27,1Z" style="fill:#888;stroke:#000;stroke-width:0.83px;"/><path d="M2615,1822l23,0l0,30l-23,1l0,-31Z" style="fill:#858585;stroke:#000;stroke-width:0.83px;"/><path d="M2615,1879l0,26l27,-1l0,-26l-27,1Z" style="fill:#868585;stroke:#000;stroke-width:0.83px;"/><path d="M2613.865,1798.96l28.135,1.04l0,-25l-29,0l0.865,23.96Z" style="fill:#0a0a0a;stroke:#000;stroke-width:0.83px;"/><path d="M2612.865,1951.96l28.135,1.04l0,-25l-29,0l0.865,23.96Z" style="fill:#151515;stroke:#000;stroke-width:0.83px;"/><path d="M2770.865,1796.96l28.135,1.04l0,-25l-29,0l0.865,23.96Z" style="fill:#141414;stroke:#000;stroke-width:0.83px;"/><path d="M2769.865,1950.96l28.135,1.04l0,-25l-29,0l0.865,23.96Z" style="fill:#161616;stroke:#000;stroke-width:0.83px;"/><g transform="matrix(0,-1,1,0,-2666.784731,4808.925629)"><g transform="matrix(50,0,0,50,2991.598676,5389.622989)"></g><text x="2901.584px" y="5389.623px" style="font-family:'CourierNewPS-BoldMT', 'Courier New', monospace;font-weight:700;font-size:50px;">114</text></g><path d="M2607,2101l0,202l208,1l-1,-205l-207,2Z" style="fill:#828282;stroke:#000;stroke-width:0.83px;"/><path d="M2617,2115l-1,177l185,-1l1,-178l-185,2Z" style="fill:#cfcfcf;stroke:#000;stroke-width:0.83px;"/><path d="M2636,2130l1,146l147,1l-2,-146l-146,-1Z" style="fill:#fff;stroke:#000;stroke-width:0.83px;"/><path d="M2661,2168l0,5l5,0l0,4l3,0l0,7l12,0l0,-5l4,0l0,-3l4,0l0,-12l-5,0l0,-3l-4,0l0,-5l-10,0l0,4l-5,0l0,4l-3,0l0,4l-1,0Z" style="fill:#6d6d6d;stroke:#000;stroke-width:0.83px;"/><path d="M2671,2163l0,3l-4,0l0,8l4,0l0,3l11,0l0,-14l-11,0Z" style="fill:#fdfdfd;stroke:#000;stroke-width:0.83px;"/><path d="M2716,2152l0,100l26,0l-1,-100l-25,0Z" style="fill:#050505;stroke:#000;stroke-width:0.83px;"/><path d="M2775,2163l0,29l27,0l-1,-30l-26,1Z" style="fill:#8f8f8f;stroke:#000;stroke-width:0.83px;"/><path d="M2775,2217l1,23l26,1l0,-25l-27,1Z" style="fill:#888;stroke:#000;stroke-width:0.83px;"/><path d="M2618,2162l23,0l0,30l-23,1l0,-31Z" style="fill:#858585;stroke:#000;stroke-width:0.83px;"/><path d="M2618,2219l0,26l27,-1l0,-26l-27,1Z" style="fill:#868585;stroke:#000;stroke-width:0.83px;"/><path d="M2616.865,2138.96l28.135,1.04l0,-25l-29,0l0.865,23.96Z" style="fill:#0a0a0a;stroke:#000;stroke-width:0.83px;"/><path d="M2615.865,2291.96l28.135,1.04l0,-25l-29,0l0.865,23.96Z" style="fill:#151515;stroke:#000;stroke-width:0.83px;"/><path d="M2773.865,2136.96l28.135,1.04l0,-25l-29,0l0.865,23.96Z" style="fill:#141414;stroke:#000;stroke-width:0.83px;"/><path d="M2772.865,2290.96l28.135,1.04l0,-25l-29,0l0.865,23.96Z" style="fill:#161616;stroke:#000;stroke-width:0.83px;"/><g transform="matrix(0,-1,1,0,-3003.784731,5151.925629)"><g transform="matrix(50,0,0,50,2994.598676,5729.622989)"></g><text x="2904.584px" y="5729.623px" style="font-family:'CourierNewPS-BoldMT', 'Courier New', monospace;font-weight:700;font-size:50px;">117</text></g><path d="M2195,2099l0,202l208,1l-1,-205l-207,2Z" style="fill:#828282;stroke:#000;stroke-width:0.83px;"/><path d="M2205,2113l-1,177l185,-1l1,-178l-185,2Z" style="fill:#cfcfcf;stroke:#000;stroke-width:0.83px;"/><path d="M2224,2128l1,146l147,1l-2,-146l-146,-1Z" style="fill:#fff;stroke:#000;stroke-width:0.83px;"/><path d="M2249,2166l0,5l5,0l0,4l3,0l0,7l12,0l0,-5l4,0l0,-3l4,0l0,-12l-5,0l0,-3l-4,0l0,-5l-10,0l0,4l-5,0l0,4l-3,0l0,4l-1,0Z" style="fill:#6d6d6d;stroke:#000;stroke-width:0.83px;"/><path d="M2259,2161l0,3l-4,0l0,8l4,0l0,3l11,0l0,-14l-11,0Z" style="fill:#fdfdfd;stroke:#000;stroke-width:0.83px;"/><path d="M2304,2150l0,100l26,0l-1,-100l-25,0Z" style="fill:#050505;stroke:#000;stroke-width:0.83px;"/><path d="M2363,2161l0,29l27,0l-1,-30l-26,1Z" style="fill:#8f8f8f;stroke:#000;stroke-width:0.83px;"/><path d="M2363,2215l1,23l26,1l0,-25l-27,1Z" style="fill:#888;stroke:#000;stroke-width:0.83px;"/><path d="M2206,2160l23,0l0,30l-23,1l0,-31Z" style="fill:#858585;stroke:#000;stroke-width:0.83px;"/><path d="M2206,2217l0,26l27,-1l0,-26l-27,1Z" style="fill:#868585;stroke:#000;stroke-width:0.83px;"/><path d="M2204.865,2136.96l28.135,1.04l0,-25l-29,0l0.865,23.96Z" style="fill:#0a0a0a;stroke:#000;stroke-width:0.83px;"/><path d="M2203.865,2289.96l28.135,1.04l0,-25l-29,0l0.865,23.96Z" style="fill:#151515;stroke:#000;stroke-width:0.83px;"/><path d="M2361.865,2134.96l28.135,1.04l0,-25l-29,0l0.865,23.96Z" style="fill:#141414;stroke:#000;stroke-width:0.83px;"/><path d="M2360.865,2288.96l28.135,1.04l0,-25l-29,0l0.865,23.96Z" style="fill:#161616;stroke:#000;stroke-width:0.83px;"/><g transform="matrix(0,-1,1,0,-3413.784731,4737.925629)"><g transform="matrix(50,0,0,50,2582.598676,5727.622989)"></g><text x="2492.584px" y="5727.623px" style="font-family:'CourierNewPS-BoldMT', 'Courier New', monospace;font-weight:700;font-size:50px;">118</text></g><g transform="matrix(75,0,0,75,2938.181522,1078.423859)"></g><text x="1632.969px" y="1078.424px" style="font-family:'CourierNewPSMT', 'Courier New', monospace;font-size:75px;">Bosch BME690 8x Shuttle Board</text></svg>