<?xml version="1.0" encoding="UTF-8" standalone="no"?><!DOCTYPE svg PUBLIC "-//W3C//DTD SVG 1.1//EN" "http://www.w3.org/Graphics/SVG/1.1/DTD/svg11.dtd"><svg width="100%" height="100%" viewBox="0 0 3508 4961" version="1.1" xmlns="http://www.w3.org/2000/svg" xmlns:xlink="http://www.w3.org/1999/xlink" xml:space="preserve" xmlns:serif="http://www.serif.com/" style="fill-rule:evenodd;clip-rule:evenodd;stroke-linecap:round;stroke-linejoin:round;stroke-miterlimit:1.5;"><path d="M1078,2208l123,0" style="fill:none;stroke:#000;stroke-width:1px;"/><path d="M1078,2048l123,1" style="fill:none;stroke:#000;stroke-width:1px;"/><path d="M1126,1923l73,-1" style="fill:none;stroke:#000;stroke-width:1px;"/><path d="M976,1921l122,1" style="fill:none;stroke:#000;stroke-width:1px;"/><path d="M1075,1794l127,0" style="fill:none;stroke:#000;stroke-width:1px;"/><path d="M1075,1635l128,1" style="fill:none;stroke:#000;stroke-width:1px;"/><path d="M1201,1494l0,851" style="fill:none;stroke:#000;stroke-width:1px;"/><path d="M1322,2054l-1,-270" style="fill:none;stroke:#000;stroke-width:1px;"/><path d="M1200,1834l14,-1l0,174l-15,0l1,-173Z" style="fill:#6b6b6b;stroke:#000;stroke-width:1px;"/><path d="M1293,2006l-59,1l0,-172l59,-1" style="fill:#6b6b6b;stroke:#000;stroke-width:1px;"/><path d="M1293,1834l0,172" style="fill:none;stroke:#000;stroke-width:1px;"/><path d="M1068,2426l123,1l24,26l0,15l165,0l0,-190l29,-30l81,1l19,25l15,-26l20,0l25,66l25,0l20,-65l25,0l25,65l25,-1l24,-64l21,0l25,65l25,0l24,-66l21,1l25,65l30,0l15,-65l30,0l29,65l64,-90l1,-85l-553,0l-149,-85l-16,105l-25,30l-10,0l0,14l40,116l0,15l-16,9l-9,-5l-35,-110l-49,21l-1,20l25,71l-1,8l-157,-1l1,79Z" style="fill:#afafaf;stroke:#000;stroke-width:1px;"/><path d="M1067,1411.491l123,-1.001l24,-26.036l0,-15.021l165,0l0,190.26l29,30.041l81,-1.001l19,-25.034l15,26.036l20,0l25,-66.09l25,0l20,65.089l25,0l25,-65.089l25,1.001l24,64.088l21,0l25,-65.089l25,0l24,66.09l21,-1.001l25,-65.089l30,0l15,65.089l30,0l29,-65.089l64,90.123l1,85.116l-553,0l-149,85.116l-16,-105.144l-25,-30.041l-10,0l0,-14.019l40,-116.159l0,-15.021l-16,-9.012l-9,5.007l-35,110.151l-49,-21.029l-1,-20.027l25,-71.097l-1,-8.011l-157,1.001l1,-79.108Z" style="fill:#afafaf;stroke:#000;stroke-width:1px;"/><path d="M1055,1361c-40.057,95.077 -39,97 -39,97l-6,941l43,77l148,1l-1,-24l-13,-25l-121,-1l0,-79l26,0l-1,-105l-15,-21l-4,-592l18,-42l-1,-97l-24,-1l1,-79l115,0l20,-15l-1,-35l-145,0" style="stroke:#000;stroke-width:1px;"/><path d="M1425,1586l44,0l0,-6l6,-4l4,0l1,-5l4,0l0,-5l6,0l-1,-6l5,0l0,-5l5,0l1,-9l6,0l-1,-45l-6,-1l1,-10l-6,0l0,-6l-6,1l1,-5l-5,0l0,-4l-5,0l0,-6l-5,0l1,-5l-15,1l-1,-6l-36,1l0,5l-14,0l0,5l-5,0l0,4l-5,0l0,5l-5,0l1,6l-6,0l0,4l-5,0l0,60l5,0l0,10l5,0l0,6l5,-1l-1,5l7,0l-1,6l6,-1l-2,5l7,2l5,5l5,-1Z" style="fill:#d8d7d7;stroke:#000;stroke-width:1px;"/><path d="M1381.153,2293.618l0.785,43.993l5.999,-0.107l4.106,5.928l0.071,3.999l5.017,0.911l0.071,3.999l4.999,-0.089l0.107,5.999l5.981,-1.107l0.089,4.999l4.999,-0.089l0.089,4.999l9.016,0.839l0.107,5.999l44.975,-1.802l0.893,-6.017l10.016,0.821l-0.107,-5.999l5.999,-0.107l-1.107,-5.981l5.017,0.911l-0.089,-4.999l3.999,-0.071l-0.089,-4.999l5.999,-0.107l-0.089,-4.999l5.017,0.911l-1.267,-14.98l5.981,-1.107l-1.642,-35.976l-4.999,0.089l-0.25,-13.998l-4.999,0.089l-0.089,-4.999l-3.999,0.071l-0.089,-4.999l-4.999,0.089l-0.089,-4.999l-5.981,1.107l-0.107,-5.999l-3.999,0.071l-0.089,-4.999l-59.99,1.07l0.089,4.999l-9.998,0.178l0.089,4.999l-5.999,0.107l1.089,4.981l-5.017,-0.911l0.125,6.999l-6.017,-0.893l1.107,5.981l-5.035,-1.911l-1.875,7.035l-4.91,5.088l1.089,4.981Z" style="fill:#d8d7d7;stroke:#000;stroke-width:1px;"/><path d="M1470,1699c0,0 -120.347,66.126 -149.847,88.626c-14.112,10.764 -27.153,46.374 -27.153,46.374" style="fill:none;stroke:#000;stroke-width:1px;"/><path d="M1469,2137c0,0 -119.667,-64.167 -149,-86c-14.032,-10.445 -27,-45 -27,-45" style="fill:none;stroke:#000;stroke-width:1px;"/><path d="M1235,1833c5.5,-62.333 33,-200 33,-200l40,-115l2,-15l-16,-8l-9,5l-35,109l-35,179l-1,51l1,188l34,201l36,109l9,6l15,-10l2,-15l-42,-117l-34,-194c0,0 -5.098,-116.224 0,-174Z" style="fill:#fff;stroke:#000;stroke-width:1px;"/><g transform="matrix(83.333333,0,0,83.333333,2029.074914,1324.423859)"></g><text x="1378.969px" y="1324.424px" style="font-family:'CourierNewPSMT', 'Courier New', monospace;font-size:83.333px;">GORE PolyVent</text></svg>