<?xml version="1.0" encoding="UTF-8" standalone="no"?><!DOCTYPE svg PUBLIC "-//W3C//DTD SVG 1.1//EN" "http://www.w3.org/Graphics/SVG/1.1/DTD/svg11.dtd"><svg width="100%" height="100%" viewBox="0 0 3508 4961" version="1.1" xmlns="http://www.w3.org/2000/svg" xmlns:xlink="http://www.w3.org/1999/xlink" xml:space="preserve" xmlns:serif="http://www.serif.com/" style="fill-rule:evenodd;clip-rule:evenodd;stroke-linecap:round;stroke-linejoin:round;stroke-miterlimit:1.5;"><g transform="matrix(66.666667,0,0,66.666667,1615.749457,1596.898227)"></g><text x="615.587px" y="1596.898px" style="font-family:'CourierNewPSMT', 'Courier New', monospace;font-size:66.667px;">KNF NMP 03 Diaphragm Pump</text><rect x="931" y="1116" width="93" height="10" style="fill:#b4b4b4;stroke:#000;stroke-width:0.83px;"/><path d="M932,1531l673,0l0,-407l-674,2l1,405Z" style="fill:#fff;stroke:#000;stroke-width:0.83px;"/><path d="M612,1021l0,96l41,0l0,405l-42,0l0,17l321,0l-1,-423l93,0l-1,-96l-411,1Z" style="fill:#fff;stroke:#000;stroke-width:0.83px;"/><path d="M682,1539l0,-26l5,0l-1,-8l4,0l0,-5l4,0l0,-3l4,0l0,-4l4,0l0,-5l9,0l0,-3l4,0l0,-4l9,0l0,-8l8,0l0,-9l5,0l-1,-9l4,0l0,-3l3,-1l1,-3l5,0l0,-5l124,0l0,5l16,0l0,5l5,0l0,3l9,0l0,4l4,0l0,4l4,0l0,4l3,0l0,4l4,0l0,5l3,0l0,4l5,0l0,4l5,0l0,13l8,0l0,8l4,0l0,8l4,0l0,8l4,0l0,5l4,0l0,4l-23,0l0,8l-250,0Z" style="fill:#9d9d9d;stroke:#000;stroke-width:0.83px;"/><rect x="806" y="1447" width="42" height="92" style="fill:#fff;stroke:#000;stroke-width:0.83px;"/><path d="M806,1530.351l42,-0.068l0,-50.282l-42,0l0,50.351Z" style="fill:#e3e3e3;stroke:#000;stroke-width:0.83px;"/><path d="M728,1539l0,-29l-41,0l0,3l-5,0l0,26l46,0Z" style="fill:#b8b8b8;stroke:#000;stroke-width:0.83px;"/><path d="M860,1539l0,-92" style="fill:none;stroke:#000;stroke-width:4.17px;"/><path d="M877,1472l0,67l33,0l-1,-67l-32,0Z" style="fill:#fff;stroke:#000;stroke-width:0.83px;"/><path d="M893.132,1539l-0.132,-59" style="fill:none;stroke:#000;stroke-width:0.83px;"/><path d="M752,1473l37,0l-1,66l-36,0l0,-66Z" style="fill:#fff;stroke:#000;stroke-width:0.83px;"/><path d="M769.185,1473l-0.242,66" style="fill:none;stroke:#000;stroke-width:0.83px;"/><path d="M1181.285,1125.257l-1.285,202.743l227,0l4,-4l0,-200l-229.715,1.257Z" style="fill:#fff;stroke:#000;stroke-width:0.83px;"/><rect x="612" y="1117" width="41" height="405" style="fill:#fff;stroke:#000;stroke-width:0.83px;"/><path d="M653,1177.846l-9,0.154l-4,5l0,42l4,4l9,0l0,-51.154Z" style="fill:#adadad;stroke:#000;stroke-width:0.83px;"/><path d="M652,1408.846l-9,0.154l-4,5l0,42l4,4l9,0l0,-51.154Z" style="fill:#adadad;stroke:#000;stroke-width:0.83px;"/><path d="M732,1166l-138,0" style="fill:none;stroke:#000;stroke-width:4.17px;"/><rect x="641" y="1074" width="352" height="26" style="fill:#fff;stroke:#000;stroke-width:0.83px;"/><path d="M677.564,1074l0.125,26l12.311,0l0,-26l5,0l0,26l12,0l0,-26l4,0l0,26l9,0l0,-26l4,0l0,26l12,0l0,-26l4,0l0,26l37,0l0,-26l5,0l0,26l12,0l0,-26l3,0l0,26l38,0l0,-26l4,0l0,26l13,0l0,-26l41,0l0,26l5,0l0,-26l12,0l0,26l12,0l0,-26l4,0l0,26l12,0l0,-26l5,0l0,26l13,0l0,-26" style="fill:none;stroke:#000;stroke-width:0.83px;"/><path d="M608,964l0,57l416,-1l0,-56l-416,0Z" style="fill:#5a5a5a;stroke:#000;stroke-width:0.83px;"/><path d="M603,839l0,125l423,0l0,-129l-13,-9l-394,0l-16,13Z" style="fill:#fff;stroke:#000;stroke-width:0.83px;"/><rect x="640" y="802" width="9" height="112" style="fill:#686868;stroke:#000;stroke-width:0.83px;"/><rect x="984" y="806" width="9" height="96" style="fill:#5e5e5e;stroke:#000;stroke-width:0.83px;"/><path d="M603,839l75,0l0,-13l-59,0l-16,13Z" style="fill:#080808;stroke:#000;stroke-width:0.83px;"/><path d="M1026,835l-71,0l0,-9l58,0l13,9Z" style="fill:#151515;stroke:#000;stroke-width:0.83px;"/><path d="M724,1473l-134,0" style="fill:none;stroke:#000;stroke-width:4.17px;"/></svg>