<?xml version="1.0" encoding="UTF-8" standalone="no"?><!DOCTYPE svg PUBLIC "-//W3C//DTD SVG 1.1//EN" "http://www.w3.org/Graphics/SVG/1.1/DTD/svg11.dtd"><svg width="100%" height="100%" viewBox="0 0 3508 4961" version="1.1" xmlns="http://www.w3.org/2000/svg" xmlns:xlink="http://www.w3.org/1999/xlink" xml:space="preserve" xmlns:serif="http://www.serif.com/" style="fill-rule:evenodd;clip-rule:evenodd;stroke-linecap:round;stroke-linejoin:round;stroke-miterlimit:1.5;"><path d="M920,1747l-1,-219l403,0l1,218l-403,1Z" style="fill:#fff;stroke:#000;stroke-width:0.83px;"/><rect x="919" y="1527" width="403" height="73" style="fill:#363636;stroke:#000;stroke-width:0.83px;"/><path d="M964,1629l0,26l63,0l0,-27l-63,1Z" style="fill:#4c4c4c;stroke:#000;stroke-width:0.83px;"/><rect x="1100" y="1600" width="45" height="56" style="fill:#919191;stroke:#000;stroke-width:0.83px;"/><rect x="1155" y="1629" width="54" height="27" style="fill:#181818;stroke:#000;stroke-width:0.83px;"/><path d="M1219,1600l27,0l0,146l-28,0l1,-146Z" style="fill:#b1b1b1;stroke:#000;stroke-width:0.83px;"/><rect x="963" y="1655" width="9" height="92" style="fill:#aaa;stroke:#000;stroke-width:0.83px;"/><rect x="963" y="1601" width="9" height="27" style="fill:#aaa;stroke:#000;stroke-width:0.83px;"/><rect x="1118" y="1600" width="9" height="37" style="fill:#fff;stroke:#000;stroke-width:0.83px;"/><rect x="963" y="1527" width="9" height="73" style="fill:#aaa;stroke:#000;stroke-width:0.83px;"/><rect x="1155" y="1527" width="8" height="73" style="fill:#4c4c4c;stroke:#000;stroke-width:0.83px;"/><path d="M1201,1527l-1,73l9,0l0,-73l-8,0Z" style="stroke:#000;stroke-width:0.83px;"/><rect x="1237" y="1527" width="9" height="73" style="fill:#a2a2a2;stroke:#000;stroke-width:0.83px;"/><path d="M862,1892l0,137l48.185,0l-1.004,-38l31.119,1l0,26l362.388,1l1.004,-27l32.123,0l-1.004,37l49.188,0l-1.004,-136l-520.996,-1Z" style="fill:#fffefe;stroke:#000;stroke-width:0.83px;"/><path d="M858,1724.013l61.349,0l0,27.176l9.051,0l0,27.176l386.194,2.013l-1.006,-29.19l10.057,0l-1.006,-29.19l62.354,0l1.006,150.98l-526.994,3.02l-1.006,-151.987Z" style="fill:#fff;stroke:#000;stroke-width:0.83px;"/><path d="M1048,1811l92,0l0,-19l56,38l-56,37l-1,-19l-91,1l0,-38Z" style="fill:#343434;stroke:#000;stroke-width:0.83px;"/><path d="M857,1876l0,16l531,1l-1,-19l-530,2Z" style="stroke:#000;stroke-width:0.83px;"/><path d="M502,1711l302,1l-1,347l-302,0l1,-348Z" style="fill:#fff;stroke:#000;stroke-width:0.83px;"/><path d="M1441,1710l302,1l-1,347l-302,0l1,-348Z" style="fill:#fff;stroke:#000;stroke-width:0.83px;"/><path d="M803.949,1729.656l36.051,0.344l-1,301l-35,0l-0.051,-301.344Z" style="fill:#fcfcfc;stroke:#000;stroke-width:0.83px;"/><path d="M1404.949,1728.656l36.051,0.344l-1,301l-35,0l-0.051,-301.344Z" style="fill:#fcfcfc;stroke:#000;stroke-width:0.83px;"/><path d="M839,1711l0,347l20,0l-1,-347l-19,0Z" style="stroke:#000;stroke-width:0.83px;"/><path d="M1385,1712l0,347l20,0l-1,-347l-19,0Z" style="stroke:#000;stroke-width:0.83px;"/><rect x="803" y="2031" width="36" height="28" style="fill:#d9d9d9;stroke:#000;stroke-width:0.83px;"/><rect x="1404" y="2030" width="36" height="28" style="fill:#d9d9d9;stroke:#000;stroke-width:0.83px;"/><path d="M859,2058l82,1l-1,-66l-29,0l1,37l-53,0l0,28Z" style="fill:#7e7e7e;stroke:#000;stroke-width:0.83px;"/><path d="M1385,2059l-82,1l1,-66l29,0l-1,37l53,0l0,28Z" style="fill:#7e7e7e;stroke:#000;stroke-width:0.83px;"/><path d="M941,2020l0,18l362,1l0,-19l-362,0Z" style="fill:#a2a2a2;stroke:#000;stroke-width:0.83px;"/><path d="M1324,1747l-405,0l0,4l10,0l0,27l386,2l-1,-29l10,0l0,-4Z" style="fill:#bbb;stroke:#000;stroke-width:0.83px;"/><g transform="matrix(75,0,0,75,1453.543125,2136.768903)"></g><text x="733.426px" y="2136.769px" style="font-family:'CourierNewPSMT', 'Courier New', monospace;font-size:75px;">Sensiron SFM3019</text></svg>